<svg width="501" height="501" viewBox="0 0 501 501" fill="none" xmlns="http://www.w3.org/2000/svg">
<g clip-path="url(#clip0_4_81)">
<rect x="0.0393066" y="0.885742" width="500" height="500" fill="white"/>
<path d="M107.578 368.18L107.098 374.1C107.098 381.567 107.578 388.154 108.538 393.86C109.498 399.514 110.645 402.34 111.978 402.34C113.791 402.34 115.791 399.807 117.978 394.74C120.165 389.674 121.258 384.607 121.258 379.54C121.258 373.727 120.645 369.78 119.418 367.7C118.938 366.954 118.191 366.074 117.178 365.06C115.311 363.194 114.378 361.407 114.378 359.7C114.378 358.9 114.591 358.26 115.018 357.78C115.498 357.247 116.058 356.98 116.698 356.98C118.351 356.98 119.738 357.647 120.858 358.98C121.978 360.26 122.778 361.94 123.258 364.02C124.165 367.7 124.618 371.594 124.618 375.7C124.618 385.247 122.831 392.98 119.258 398.9C115.738 404.82 112.271 407.78 108.858 407.78C106.405 407.78 104.565 405.167 103.338 399.94C102.165 394.714 101.578 388.074 101.578 380.02C98.3781 393.354 94.9914 401.78 91.4181 405.3C89.6581 406.954 87.7648 407.78 85.7381 407.78C84.6714 407.78 83.6048 407.327 82.5381 406.42C81.5248 405.46 80.7781 404.207 80.2981 402.66C79.2314 399.514 78.6981 393.514 78.6981 384.66C76.4581 384.34 74.4581 383.754 72.6981 382.9C71.8448 382.474 71.4181 381.994 71.4181 381.46C71.4181 380.927 71.9514 380.66 73.0181 380.66L78.7781 381.86C79.2581 372.634 80.9914 365.514 83.9781 360.5C85.5781 357.78 87.3648 356.42 89.3381 356.42C92.9114 356.42 94.6981 359.087 94.6981 364.42C94.6981 368.74 93.8714 372.874 92.2181 376.82C90.5648 380.767 88.0848 383.274 84.7781 384.34C84.7781 387.914 84.9914 391.114 85.4181 393.94C86.2714 399.54 87.3114 402.34 88.5381 402.34C89.5514 402.34 90.8848 400.82 92.5381 397.78C94.1914 394.687 95.7914 390.527 97.3381 385.3C98.9381 380.074 99.9781 374.927 100.458 369.86C100.511 369.114 101.231 368.26 102.618 367.3C104.005 366.34 104.965 365.86 105.498 365.86C106.885 365.86 107.578 366.634 107.578 368.18ZM84.7781 381.86C87.0714 380.954 88.8314 378.794 90.0581 375.38C91.3381 371.914 91.9781 369.194 91.9781 367.22C91.9781 365.194 91.8981 363.7 91.7381 362.74C91.3648 361.087 90.8581 360.26 90.2181 360.26C89.0448 360.26 87.8714 362.714 86.6981 367.62C85.5781 372.474 84.9381 377.22 84.7781 381.86ZM133.214 402.26L133.294 404.74C133.294 406.234 132.868 406.98 132.014 406.98C130.734 406.98 129.508 406.82 128.334 406.5C127.161 406.127 126.574 405.647 126.574 405.06C126.574 404.42 126.708 402.314 126.974 398.74C127.294 395.114 127.454 392.394 127.454 390.58V385.94C127.454 372.287 129.881 363.594 134.734 359.86C135.854 359.007 137.001 358.58 138.174 358.58C138.708 358.58 139.241 359.167 139.774 360.34C140.308 361.514 140.574 363.034 140.574 364.9C140.574 369.487 139.801 373.78 138.254 377.78C136.708 381.78 135.134 384.847 133.534 386.98C133.481 388.314 133.454 390.394 133.454 393.22C133.668 392.9 134.788 391.087 136.814 387.78C138.841 384.474 140.548 382.047 141.934 380.5C143.374 378.954 144.654 378.18 145.774 378.18C146.894 378.18 147.881 378.554 148.734 379.3C149.641 380.047 150.094 380.98 150.094 382.1C150.094 384.447 149.828 387.914 149.294 392.5C148.814 397.034 148.574 399.914 148.574 401.14C148.574 402.314 148.734 402.9 149.054 402.9C149.961 402.847 151.214 401.727 152.814 399.54C154.414 397.3 155.988 394.447 157.534 390.98C159.134 387.514 160.094 385.78 160.414 385.78C160.788 385.78 160.974 385.994 160.974 386.42C160.974 387.914 160.201 390.287 158.654 393.54C154.441 402.5 150.894 406.98 148.014 406.98C145.934 406.98 144.361 406.554 143.294 405.7C142.921 405.327 142.734 404.367 142.734 402.82C142.734 401.22 142.868 398.66 143.134 395.14C143.454 391.567 143.614 388.9 143.614 387.14C143.614 385.38 143.294 384.5 142.654 384.5C142.068 384.5 140.468 386.34 137.854 390.02C135.241 393.647 133.854 395.967 133.694 396.98C133.374 398.847 133.214 400.607 133.214 402.26ZM138.414 366.66C138.414 364.42 138.121 363.3 137.534 363.3C136.574 363.3 135.641 366.26 134.734 372.18C134.254 375.327 133.908 378.98 133.694 383.14C136.841 376.58 138.414 371.087 138.414 366.66ZM178.742 406.98C176.662 406.98 175.089 406.554 174.022 405.7C173.649 405.327 173.462 404.394 173.462 402.9C173.462 401.354 173.515 399.3 173.622 396.74C172.235 400.207 170.849 402.794 169.462 404.5C168.129 406.154 166.395 406.98 164.262 406.98C162.129 406.98 160.262 405.994 158.662 404.02C157.062 401.994 156.262 398.847 156.262 394.58C156.262 390.26 157.462 386.447 159.862 383.14C162.315 379.834 165.515 378.18 169.462 378.18C171.169 378.18 173.089 379.3 175.222 381.54C175.649 380.954 176.395 380.26 177.462 379.46C178.582 378.607 179.515 378.18 180.262 378.18C181.062 378.18 181.462 379.194 181.462 381.22C181.462 381.754 181.302 382.794 180.982 384.34C180.715 385.887 180.395 387.007 180.022 387.7C179.542 388.927 179.302 393.274 179.302 400.74C179.302 402.18 179.462 402.9 179.782 402.9C180.689 402.847 181.942 401.727 183.542 399.54C185.142 397.3 186.715 394.447 188.262 390.98C189.862 387.514 190.822 385.78 191.142 385.78C191.515 385.78 191.702 385.994 191.702 386.42C191.702 387.914 190.929 390.287 189.382 393.54C185.169 402.5 181.622 406.98 178.742 406.98ZM168.982 381.38C167.489 381.38 165.889 382.5 164.182 384.74C162.529 386.927 161.702 389.514 161.702 392.5C161.702 395.487 162.129 397.94 162.982 399.86C163.889 401.78 165.062 402.74 166.502 402.74C168.262 402.74 170.849 398.34 174.262 389.54C174.315 389.114 174.369 388.394 174.422 387.38C174.529 386.314 174.609 385.514 174.662 384.98C174.182 384.127 173.329 383.327 172.102 382.58C170.929 381.78 169.889 381.38 168.982 381.38ZM204.807 393.54C200.594 402.5 197.02 406.98 194.087 406.98C191.207 406.98 189.5 406.634 188.967 405.94C188.487 405.247 188.247 402.954 188.247 399.06C188.247 395.167 188.62 389.54 189.367 382.18C186.7 381.647 185.287 380.554 185.127 378.9C185.127 378.047 185.687 377.62 186.807 377.62C187.927 377.62 188.914 377.834 189.767 378.26C190.247 374.42 190.807 370.527 191.447 366.58C191.607 365.567 192.114 364.607 192.967 363.7C193.82 362.794 194.647 362.34 195.447 362.34C196.14 362.34 196.487 363.434 196.487 365.62C196.487 366.634 196.114 371.3 195.367 379.62C196.807 379.354 198.38 378.82 200.087 378.02C201.847 377.22 202.887 376.82 203.207 376.82C204.167 376.82 204.647 377.114 204.647 377.7C204.7 378.234 203.714 378.98 201.687 379.94C199.66 380.847 197.474 381.54 195.127 382.02C194.487 389.807 194.167 395.7 194.167 399.7C194.167 401.834 194.487 402.9 195.127 402.9C196.087 402.847 197.367 401.727 198.967 399.54C200.567 397.354 202.14 394.527 203.687 391.06C205.287 387.54 206.247 385.78 206.567 385.78C206.94 385.78 207.127 385.994 207.127 386.42C207.127 387.914 206.354 390.287 204.807 393.54ZM236.838 393.54C232.625 402.5 229.051 406.98 226.118 406.98C223.238 406.98 221.531 406.634 220.998 405.94C220.518 405.247 220.278 402.954 220.278 399.06C220.278 395.167 220.651 389.54 221.398 382.18C218.731 381.647 217.318 380.554 217.158 378.9C217.158 378.047 217.718 377.62 218.838 377.62C219.958 377.62 220.945 377.834 221.798 378.26C222.278 374.42 222.838 370.527 223.478 366.58C223.638 365.567 224.145 364.607 224.998 363.7C225.851 362.794 226.678 362.34 227.478 362.34C228.171 362.34 228.518 363.434 228.518 365.62C228.518 366.634 228.145 371.3 227.398 379.62C228.838 379.354 230.411 378.82 232.118 378.02C233.878 377.22 234.918 376.82 235.238 376.82C236.198 376.82 236.678 377.114 236.678 377.7C236.731 378.234 235.745 378.98 233.718 379.94C231.691 380.847 229.505 381.54 227.158 382.02C226.518 389.807 226.198 395.7 226.198 399.7C226.198 401.834 226.518 402.9 227.158 402.9C228.118 402.847 229.398 401.727 230.998 399.54C232.598 397.354 234.171 394.527 235.718 391.06C237.318 387.54 238.278 385.78 238.598 385.78C238.971 385.78 239.158 385.994 239.158 386.42C239.158 387.914 238.385 390.287 236.838 393.54ZM260.052 389.22C262.185 388.527 263.652 387.94 264.452 387.46C265.305 386.927 265.945 386.527 266.372 386.26L267.332 385.7C267.599 385.54 267.812 385.46 267.972 385.46C268.399 385.46 268.612 385.7 268.612 386.18C268.612 386.66 267.785 387.514 266.132 388.74C264.479 389.914 262.425 390.98 259.972 391.94C259.599 396.42 258.185 400.047 255.732 402.82C253.279 405.594 249.785 406.98 245.252 406.98C241.945 406.98 239.412 405.674 237.652 403.06C235.892 400.394 235.012 397.3 235.012 393.78C235.012 390.207 236.052 386.847 238.132 383.7C240.265 380.554 242.985 378.98 246.292 378.98C247.785 377.914 249.545 377.38 251.572 377.38C253.652 377.38 255.572 378.474 257.332 380.66C259.092 382.847 259.999 385.7 260.052 389.22ZM254.852 393.3L251.972 393.46C249.519 393.46 247.439 392.74 245.732 391.3C244.025 389.807 243.172 388.18 243.172 386.42C243.172 384.66 243.465 383.14 244.052 381.86C241.759 383.674 240.612 387.247 240.612 392.58C240.612 395.14 241.145 397.594 242.212 399.94C243.279 402.234 244.959 403.38 247.252 403.38C249.545 403.38 251.332 402.42 252.612 400.5C253.892 398.527 254.639 396.127 254.852 393.3ZM249.892 380.02C249.039 380.02 248.372 380.42 247.892 381.22C247.412 381.967 247.172 382.794 247.172 383.7C247.172 385.674 247.839 387.274 249.172 388.5C250.559 389.727 252.159 390.34 253.972 390.34H254.932C254.825 387.727 254.372 385.354 253.572 383.22C252.825 381.087 251.599 380.02 249.892 380.02ZM312.89 393.38C313.263 392.847 313.797 391.914 314.49 390.58C316.197 387.54 317.21 386.02 317.53 386.02C317.903 386.02 318.09 386.234 318.09 386.66C318.09 389.274 316.73 392.58 314.01 396.58C309.103 403.78 302.57 407.38 294.41 407.38C292.117 407.38 290.01 406.847 288.09 405.78C286.17 404.714 284.65 403.354 283.53 401.7C281.237 398.34 280.09 394.82 280.09 391.14C280.09 381.86 282.49 374.394 287.29 368.74C292.143 363.034 297.877 360.18 304.49 360.18C306.997 360.18 309.05 360.927 310.65 362.42C312.25 363.86 313.05 365.7 313.05 367.94C313.05 370.18 312.49 372.26 311.37 374.18C310.25 376.1 308.89 377.06 307.29 377.06C305.743 377.06 304.97 376.634 304.97 375.78C304.97 374.82 305.477 373.727 306.49 372.5C307.557 371.274 308.09 370.047 308.09 368.82C308.09 365.034 306.063 363.14 302.01 363.14C298.01 363.14 294.383 365.834 291.13 371.22C287.877 376.607 286.25 382.154 286.25 387.86C286.25 391.807 287.37 395.327 289.61 398.42C291.85 401.46 294.997 402.98 299.05 402.98C303.85 402.98 308.463 399.78 312.89 393.38ZM338.099 389.22C340.232 388.527 341.699 387.94 342.499 387.46C343.352 386.927 343.992 386.527 344.419 386.26L345.379 385.7C345.645 385.54 345.859 385.46 346.019 385.46C346.445 385.46 346.659 385.7 346.659 386.18C346.659 386.66 345.832 387.514 344.179 388.74C342.525 389.914 340.472 390.98 338.019 391.94C337.645 396.42 336.232 400.047 333.779 402.82C331.325 405.594 327.832 406.98 323.299 406.98C319.992 406.98 317.459 405.674 315.699 403.06C313.939 400.394 313.059 397.3 313.059 393.78C313.059 390.207 314.099 386.847 316.179 383.7C318.312 380.554 321.032 378.98 324.339 378.98C325.832 377.914 327.592 377.38 329.619 377.38C331.699 377.38 333.619 378.474 335.379 380.66C337.139 382.847 338.045 385.7 338.099 389.22ZM332.899 393.3L330.019 393.46C327.565 393.46 325.485 392.74 323.779 391.3C322.072 389.807 321.219 388.18 321.219 386.42C321.219 384.66 321.512 383.14 322.099 381.86C319.805 383.674 318.659 387.247 318.659 392.58C318.659 395.14 319.192 397.594 320.259 399.94C321.325 402.234 323.005 403.38 325.299 403.38C327.592 403.38 329.379 402.42 330.659 400.5C331.939 398.527 332.685 396.127 332.899 393.3ZM327.939 380.02C327.085 380.02 326.419 380.42 325.939 381.22C325.459 381.967 325.219 382.794 325.219 383.7C325.219 385.674 325.885 387.274 327.219 388.5C328.605 389.727 330.205 390.34 332.019 390.34H332.979C332.872 387.727 332.419 385.354 331.619 383.22C330.872 381.087 329.645 380.02 327.939 380.02ZM367.239 389.22C369.373 388.527 370.839 387.94 371.639 387.46C372.493 386.927 373.133 386.527 373.559 386.26L374.519 385.7C374.786 385.54 374.999 385.46 375.159 385.46C375.586 385.46 375.799 385.7 375.799 386.18C375.799 386.66 374.973 387.514 373.319 388.74C371.666 389.914 369.613 390.98 367.159 391.94C366.786 396.42 365.373 400.047 362.919 402.82C360.466 405.594 356.973 406.98 352.439 406.98C349.133 406.98 346.599 405.674 344.839 403.06C343.079 400.394 342.199 397.3 342.199 393.78C342.199 390.207 343.239 386.847 345.319 383.7C347.453 380.554 350.173 378.98 353.479 378.98C354.973 377.914 356.733 377.38 358.759 377.38C360.839 377.38 362.759 378.474 364.519 380.66C366.279 382.847 367.186 385.7 367.239 389.22ZM362.039 393.3L359.159 393.46C356.706 393.46 354.626 392.74 352.919 391.3C351.213 389.807 350.359 388.18 350.359 386.42C350.359 384.66 350.653 383.14 351.239 381.86C348.946 383.674 347.799 387.247 347.799 392.58C347.799 395.14 348.333 397.594 349.399 399.94C350.466 402.234 352.146 403.38 354.439 403.38C356.733 403.38 358.519 402.42 359.799 400.5C361.079 398.527 361.826 396.127 362.039 393.3ZM357.079 380.02C356.226 380.02 355.559 380.42 355.079 381.22C354.599 381.967 354.359 382.794 354.359 383.7C354.359 385.674 355.026 387.274 356.359 388.5C357.746 389.727 359.346 390.34 361.159 390.34H362.119C362.013 387.727 361.559 385.354 360.759 383.22C360.013 381.087 358.786 380.02 357.079 380.02ZM397.1 409.38L399.26 409.14C399.687 409.14 399.9 409.354 399.9 409.78C399.9 410.527 399.393 411.087 398.38 411.46C397.367 411.834 396.22 412.02 394.94 412.02C392.54 412.02 390.513 411.06 388.86 409.14C387.26 407.22 385.02 403.674 382.14 398.5C381.447 397.38 381.1 396.527 381.1 395.94C381.1 395.14 382.22 394.207 384.46 393.14C388.087 391.274 389.9 388.927 389.9 386.1C389.9 385.3 389.607 384.634 389.02 384.1C388.487 383.514 387.767 383.22 386.86 383.22C385.58 383.22 384.06 384.74 382.3 387.78C380.54 390.767 379.34 393.594 378.7 396.26C378.113 398.874 377.82 401.7 377.82 404.74C377.82 406.234 377.393 406.98 376.54 406.98C375.313 406.98 374.14 406.82 373.02 406.5C371.9 406.127 371.34 405.674 371.34 405.14C371.34 404.554 371.553 402.02 371.98 397.54C372.407 393.007 372.647 389.754 372.7 387.78C372.913 376.9 373.553 368.58 374.62 362.82C374.78 362.34 375.5 361.514 376.78 360.34C378.113 359.167 379.18 358.58 379.98 358.58C380.78 358.58 381.153 359.594 381.1 361.62C381.1 363.594 380.673 367.86 379.82 374.42C378.967 380.98 378.433 386.98 378.22 392.42C379.18 389.007 380.7 385.78 382.78 382.74C384.913 379.7 387.047 378.18 389.18 378.18C392.807 378.18 394.62 379.94 394.62 383.46C394.62 385.807 393.927 387.94 392.54 389.86C391.153 391.727 389.287 393.247 386.94 394.42C386.46 394.634 386.22 394.874 386.22 395.14C386.22 395.407 386.3 395.674 386.46 395.94C389.82 401.86 392.673 406.02 395.02 408.42C395.66 409.06 396.353 409.38 397.1 409.38ZM411.562 395.94C410.282 395.94 409.242 395.434 408.442 394.42C407.642 393.407 407.242 392.207 407.242 390.82C407.242 389.38 407.642 388.127 408.442 387.06C409.295 385.94 410.309 385.007 411.482 384.26C412.655 383.514 413.829 382.714 415.002 381.86C416.229 381.007 417.242 379.807 418.042 378.26C418.895 376.714 419.322 374.82 419.322 372.58C419.322 370.287 418.682 368.394 417.402 366.9C416.175 365.407 414.442 364.66 412.202 364.66C411.242 364.66 410.335 365.087 409.482 365.94C408.415 367.06 407.562 368.5 406.922 370.26C406.282 371.647 405.402 372.34 404.282 372.34C403.642 372.34 403.135 372.1 402.762 371.62C402.442 371.14 402.282 370.634 402.282 370.1C402.335 367.807 403.722 365.86 406.442 364.26C409.215 362.607 411.989 361.78 414.762 361.78C417.535 361.78 420.042 362.607 422.282 364.26C424.575 365.86 425.722 368.02 425.722 370.74C425.722 373.407 425.242 375.7 424.282 377.62C423.322 379.487 422.149 380.954 420.762 382.02C419.375 383.034 417.962 383.94 416.522 384.74C415.135 385.54 413.962 386.34 413.002 387.14C412.042 387.887 411.562 388.634 411.562 389.38C411.562 390.074 411.962 390.767 412.762 391.46C413.562 392.154 413.962 392.687 413.962 393.06C413.962 393.38 413.669 393.94 413.082 394.74C412.495 395.54 411.989 395.94 411.562 395.94ZM409.402 408.02C408.602 408.02 407.829 407.754 407.082 407.22C406.335 406.74 405.962 405.914 405.962 404.74C406.015 403.567 406.549 402.66 407.562 402.02C408.629 401.327 409.615 400.98 410.522 400.98C411.429 400.98 412.175 401.247 412.762 401.78C413.402 402.26 413.722 402.874 413.722 403.62C413.722 406.554 412.282 408.02 409.402 408.02Z" fill="black"/>
<circle cx="200.52" cy="316.08" r="10" fill="black"/>
<circle cx="233.853" cy="316.08" r="10" fill="black"/>
<circle cx="267.186" cy="316.08" r="10" fill="black"/>
<circle cx="300.52" cy="316.08" r="10" fill="black"/>
<path fill-rule="evenodd" clip-rule="evenodd" d="M335.284 216.521C335.284 216.521 354.251 184.885 337.07 164.276C309.051 130.665 270.352 152.197 270.352 152.197C274.111 147.953 278.812 144.038 287.606 141.556C287.606 141.556 274.825 118.476 244.182 122.865C200.815 129.073 190.98 170.602 190.98 170.602C190.676 164.313 190.94 157.834 192.992 150.759C192.992 150.759 176.402 152.67 166.604 164.175C146.318 187.999 169.595 214.79 169.595 214.79C169.595 214.79 137.865 195.88 156.251 162.106C168.569 139.479 194.248 142.653 194.248 142.653C194.248 142.653 209.309 110.781 243.501 107.925C291.254 103.937 299.103 137.976 299.103 137.976C299.103 137.976 328.793 132.239 344.855 160.053C361.815 189.423 335.284 216.521 335.284 216.521ZM229.845 214.962C265.503 208.518 296.689 210.719 320.253 227.66C314.923 237.229 312.872 250.541 317.229 262.131C311.017 256.046 307.393 248.047 307.632 231.578C290.683 218.584 254.685 213.847 229.845 214.962ZM195.163 229.289C202.868 238.982 207.209 254.04 204.585 268.896C247.067 254.065 282.121 260.418 309.094 275.974C268.334 267.414 229.067 266.14 193.468 282.747C197.68 265.839 198.692 248.132 195.163 229.289Z" fill="black"/>
</g>
<defs>
<clipPath id="clip0_4_81">
<path d="M0.519653 8.53795C0.519653 4.11967 4.10138 0.537964 8.51965 0.537964H492.52C496.938 0.537964 500.52 4.11969 500.52 8.53796V492.538C500.52 496.956 496.938 500.538 492.52 500.538H8.51964C4.10136 500.538 0.519653 496.956 0.519653 492.538V8.53795Z" fill="white"/>
</clipPath>
</defs>
</svg>
