<svg width="500" height="500" viewBox="0 0 500 500" fill="none" xmlns="http://www.w3.org/2000/svg">
<g clip-path="url(#clip0_4_112)">
<rect x="-0.479996" y="0.347778" width="500" height="500" fill="#1E1E1E"/>
<circle cx="174.52" cy="399.208" r="15" fill="white"/>
<circle cx="224.52" cy="399.208" r="15" fill="white"/>
<circle cx="274.52" cy="399.208" r="15" fill="white"/>
<circle cx="324.52" cy="399.208" r="15" fill="white"/>
<path fill-rule="evenodd" clip-rule="evenodd" d="M376.667 249.869C376.667 249.869 405.117 202.415 379.346 171.501C337.317 121.085 279.269 153.383 279.269 153.383C284.907 147.017 291.958 141.145 305.15 137.422C305.15 137.422 285.979 102.802 240.013 109.385C174.964 118.697 160.21 180.991 160.21 180.991C159.754 171.557 160.151 161.839 163.229 151.227C163.229 151.227 138.343 154.092 123.647 171.351C93.2183 207.086 128.133 247.272 128.133 247.272C128.133 247.272 80.5381 218.907 108.117 168.247C126.594 134.307 165.113 139.067 165.113 139.067C165.113 139.067 187.703 91.2588 238.991 86.9751C310.621 80.9939 322.395 132.052 322.395 132.052C322.395 132.052 366.93 123.445 391.024 165.167C416.463 209.223 376.667 249.869 376.667 249.869ZM218.508 247.53C271.995 237.865 318.774 241.166 354.12 266.578C346.125 280.931 343.049 300.9 349.583 318.284C340.266 309.157 334.83 297.158 335.189 272.455C309.765 252.964 255.768 245.858 218.508 247.53ZM166.485 269.022C178.042 283.561 184.554 306.147 180.618 328.432C244.34 306.185 296.923 315.714 337.381 339.048C276.241 326.209 217.341 324.298 163.943 349.208C170.261 323.847 171.778 297.286 166.485 269.022Z" fill="white"/>
</g>
<defs>
<clipPath id="clip0_4_112">
<path d="M0.000350952 7.99999C0.000350952 3.58171 3.58207 0 8.00035 0H492C496.419 0 500 3.58172 500 8V492C500 496.418 496.419 500 492 500H8.00034C3.58206 500 0.000350952 496.418 0.000350952 492V7.99999Z" fill="white"/>
</clipPath>
</defs>
</svg>
