<svg width="501" height="501" viewBox="0 0 501 501" fill="none" xmlns="http://www.w3.org/2000/svg">
<g clip-path="url(#clip0_4_120)">
<rect x="0.0396576" y="0.885742" width="500" height="500" fill="#1E1E1E"/>
<path d="M107.098 368.528L106.618 374.448C106.618 381.915 107.098 388.501 108.058 394.208C109.018 399.861 110.165 402.688 111.498 402.688C113.311 402.688 115.311 400.155 117.498 395.088C119.685 390.021 120.778 384.955 120.778 379.888C120.778 374.075 120.165 370.128 118.938 368.048C118.458 367.301 117.711 366.421 116.698 365.408C114.831 363.541 113.898 361.755 113.898 360.048C113.898 359.248 114.111 358.608 114.538 358.128C115.018 357.595 115.578 357.328 116.218 357.328C117.871 357.328 119.258 357.995 120.378 359.328C121.498 360.608 122.298 362.288 122.778 364.368C123.685 368.048 124.138 371.941 124.138 376.048C124.138 385.595 122.351 393.328 118.778 399.248C115.258 405.168 111.791 408.128 108.378 408.128C105.925 408.128 104.085 405.515 102.858 400.288C101.685 395.061 101.098 388.421 101.098 380.368C97.8981 393.701 94.5114 402.128 90.9381 405.648C89.1781 407.301 87.2848 408.128 85.2581 408.128C84.1914 408.128 83.1248 407.675 82.0581 406.768C81.0448 405.808 80.2981 404.555 79.8181 403.008C78.7514 399.861 78.2181 393.861 78.2181 385.008C75.9781 384.688 73.9781 384.101 72.2181 383.248C71.3648 382.821 70.9381 382.341 70.9381 381.808C70.9381 381.275 71.4714 381.008 72.5381 381.008L78.2981 382.208C78.7781 372.981 80.5114 365.861 83.4981 360.848C85.0981 358.128 86.8848 356.768 88.8581 356.768C92.4314 356.768 94.2181 359.435 94.2181 364.768C94.2181 369.088 93.3914 373.221 91.7381 377.168C90.0848 381.115 87.6048 383.621 84.2981 384.688C84.2981 388.261 84.5114 391.461 84.9381 394.288C85.7914 399.888 86.8314 402.688 88.0581 402.688C89.0714 402.688 90.4048 401.168 92.0581 398.128C93.7114 395.035 95.3114 390.875 96.8581 385.648C98.4581 380.421 99.4981 375.275 99.9781 370.208C100.031 369.461 100.751 368.608 102.138 367.648C103.525 366.688 104.485 366.208 105.018 366.208C106.405 366.208 107.098 366.981 107.098 368.528ZM84.2981 382.208C86.5914 381.301 88.3514 379.141 89.5781 375.728C90.8581 372.261 91.4981 369.541 91.4981 367.568C91.4981 365.541 91.4181 364.048 91.2581 363.088C90.8848 361.435 90.3781 360.608 89.7381 360.608C88.5648 360.608 87.3914 363.061 86.2181 367.968C85.0981 372.821 84.4581 377.568 84.2981 382.208ZM132.734 402.608L132.814 405.088C132.814 406.581 132.388 407.328 131.534 407.328C130.254 407.328 129.028 407.168 127.854 406.848C126.681 406.475 126.094 405.995 126.094 405.408C126.094 404.768 126.228 402.661 126.494 399.088C126.814 395.461 126.974 392.741 126.974 390.928V386.288C126.974 372.635 129.401 363.941 134.254 360.208C135.374 359.355 136.521 358.928 137.694 358.928C138.228 358.928 138.761 359.515 139.294 360.688C139.828 361.861 140.094 363.381 140.094 365.248C140.094 369.835 139.321 374.128 137.774 378.128C136.228 382.128 134.654 385.195 133.054 387.328C133.001 388.661 132.974 390.741 132.974 393.568C133.188 393.248 134.308 391.435 136.334 388.128C138.361 384.821 140.068 382.395 141.454 380.848C142.894 379.301 144.174 378.528 145.294 378.528C146.414 378.528 147.401 378.901 148.254 379.648C149.161 380.395 149.614 381.328 149.614 382.448C149.614 384.795 149.348 388.261 148.814 392.848C148.334 397.381 148.094 400.261 148.094 401.488C148.094 402.661 148.254 403.248 148.574 403.248C149.481 403.195 150.734 402.075 152.334 399.888C153.934 397.648 155.508 394.795 157.054 391.328C158.654 387.861 159.614 386.128 159.934 386.128C160.308 386.128 160.494 386.341 160.494 386.768C160.494 388.261 159.721 390.635 158.174 393.888C153.961 402.848 150.414 407.328 147.534 407.328C145.454 407.328 143.881 406.901 142.814 406.048C142.441 405.675 142.254 404.715 142.254 403.168C142.254 401.568 142.388 399.008 142.654 395.488C142.974 391.915 143.134 389.248 143.134 387.488C143.134 385.728 142.814 384.848 142.174 384.848C141.588 384.848 139.988 386.688 137.374 390.368C134.761 393.995 133.374 396.315 133.214 397.328C132.894 399.195 132.734 400.955 132.734 402.608ZM137.934 367.008C137.934 364.768 137.641 363.648 137.054 363.648C136.094 363.648 135.161 366.608 134.254 372.528C133.774 375.675 133.428 379.328 133.214 383.488C136.361 376.928 137.934 371.435 137.934 367.008ZM178.262 407.328C176.182 407.328 174.609 406.901 173.542 406.048C173.169 405.675 172.982 404.741 172.982 403.248C172.982 401.701 173.035 399.648 173.142 397.088C171.755 400.555 170.369 403.141 168.982 404.848C167.649 406.501 165.915 407.328 163.782 407.328C161.649 407.328 159.782 406.341 158.182 404.368C156.582 402.341 155.782 399.195 155.782 394.928C155.782 390.608 156.982 386.795 159.382 383.488C161.835 380.181 165.035 378.528 168.982 378.528C170.689 378.528 172.609 379.648 174.742 381.888C175.169 381.301 175.915 380.608 176.982 379.808C178.102 378.955 179.035 378.528 179.782 378.528C180.582 378.528 180.982 379.541 180.982 381.568C180.982 382.101 180.822 383.141 180.502 384.688C180.235 386.235 179.915 387.355 179.542 388.048C179.062 389.275 178.822 393.621 178.822 401.088C178.822 402.528 178.982 403.248 179.302 403.248C180.209 403.195 181.462 402.075 183.062 399.888C184.662 397.648 186.235 394.795 187.782 391.328C189.382 387.861 190.342 386.128 190.662 386.128C191.035 386.128 191.222 386.341 191.222 386.768C191.222 388.261 190.449 390.635 188.902 393.888C184.689 402.848 181.142 407.328 178.262 407.328ZM168.502 381.728C167.009 381.728 165.409 382.848 163.702 385.088C162.049 387.275 161.222 389.861 161.222 392.848C161.222 395.835 161.649 398.288 162.502 400.208C163.409 402.128 164.582 403.088 166.022 403.088C167.782 403.088 170.369 398.688 173.782 389.888C173.835 389.461 173.889 388.741 173.942 387.728C174.049 386.661 174.129 385.861 174.182 385.328C173.702 384.475 172.849 383.675 171.622 382.928C170.449 382.128 169.409 381.728 168.502 381.728ZM204.327 393.888C200.114 402.848 196.54 407.328 193.607 407.328C190.727 407.328 189.02 406.981 188.487 406.288C188.007 405.595 187.767 403.301 187.767 399.408C187.767 395.515 188.14 389.888 188.887 382.528C186.22 381.995 184.807 380.901 184.647 379.248C184.647 378.395 185.207 377.968 186.327 377.968C187.447 377.968 188.434 378.181 189.287 378.608C189.767 374.768 190.327 370.875 190.967 366.928C191.127 365.915 191.634 364.955 192.487 364.048C193.34 363.141 194.167 362.688 194.967 362.688C195.66 362.688 196.007 363.781 196.007 365.968C196.007 366.981 195.634 371.648 194.887 379.968C196.327 379.701 197.9 379.168 199.607 378.368C201.367 377.568 202.407 377.168 202.727 377.168C203.687 377.168 204.167 377.461 204.167 378.048C204.22 378.581 203.234 379.328 201.207 380.288C199.18 381.195 196.994 381.888 194.647 382.368C194.007 390.155 193.687 396.048 193.687 400.048C193.687 402.181 194.007 403.248 194.647 403.248C195.607 403.195 196.887 402.075 198.487 399.888C200.087 397.701 201.66 394.875 203.207 391.408C204.807 387.888 205.767 386.128 206.087 386.128C206.46 386.128 206.647 386.341 206.647 386.768C206.647 388.261 205.874 390.635 204.327 393.888ZM236.358 393.888C232.145 402.848 228.571 407.328 225.638 407.328C222.758 407.328 221.051 406.981 220.518 406.288C220.038 405.595 219.798 403.301 219.798 399.408C219.798 395.515 220.171 389.888 220.918 382.528C218.251 381.995 216.838 380.901 216.678 379.248C216.678 378.395 217.238 377.968 218.358 377.968C219.478 377.968 220.465 378.181 221.318 378.608C221.798 374.768 222.358 370.875 222.998 366.928C223.158 365.915 223.665 364.955 224.518 364.048C225.371 363.141 226.198 362.688 226.998 362.688C227.691 362.688 228.038 363.781 228.038 365.968C228.038 366.981 227.665 371.648 226.918 379.968C228.358 379.701 229.931 379.168 231.638 378.368C233.398 377.568 234.438 377.168 234.758 377.168C235.718 377.168 236.198 377.461 236.198 378.048C236.251 378.581 235.265 379.328 233.238 380.288C231.211 381.195 229.025 381.888 226.678 382.368C226.038 390.155 225.718 396.048 225.718 400.048C225.718 402.181 226.038 403.248 226.678 403.248C227.638 403.195 228.918 402.075 230.518 399.888C232.118 397.701 233.691 394.875 235.238 391.408C236.838 387.888 237.798 386.128 238.118 386.128C238.491 386.128 238.678 386.341 238.678 386.768C238.678 388.261 237.905 390.635 236.358 393.888ZM259.572 389.568C261.705 388.875 263.172 388.288 263.972 387.808C264.825 387.275 265.465 386.875 265.892 386.608L266.852 386.048C267.119 385.888 267.332 385.808 267.492 385.808C267.919 385.808 268.132 386.048 268.132 386.528C268.132 387.008 267.305 387.861 265.652 389.088C263.999 390.261 261.945 391.328 259.492 392.288C259.119 396.768 257.705 400.395 255.252 403.168C252.799 405.941 249.305 407.328 244.772 407.328C241.465 407.328 238.932 406.021 237.172 403.408C235.412 400.741 234.532 397.648 234.532 394.128C234.532 390.555 235.572 387.195 237.652 384.048C239.785 380.901 242.505 379.328 245.812 379.328C247.305 378.261 249.065 377.728 251.092 377.728C253.172 377.728 255.092 378.821 256.852 381.008C258.612 383.195 259.519 386.048 259.572 389.568ZM254.372 393.648L251.492 393.808C249.039 393.808 246.959 393.088 245.252 391.648C243.545 390.155 242.692 388.528 242.692 386.768C242.692 385.008 242.985 383.488 243.572 382.208C241.279 384.021 240.132 387.595 240.132 392.928C240.132 395.488 240.665 397.941 241.732 400.288C242.799 402.581 244.479 403.728 246.772 403.728C249.065 403.728 250.852 402.768 252.132 400.848C253.412 398.875 254.159 396.475 254.372 393.648ZM249.412 380.368C248.559 380.368 247.892 380.768 247.412 381.568C246.932 382.315 246.692 383.141 246.692 384.048C246.692 386.021 247.359 387.621 248.692 388.848C250.079 390.075 251.679 390.688 253.492 390.688H254.452C254.345 388.075 253.892 385.701 253.092 383.568C252.345 381.435 251.119 380.368 249.412 380.368ZM312.41 393.728C312.783 393.195 313.317 392.261 314.01 390.928C315.717 387.888 316.73 386.368 317.05 386.368C317.423 386.368 317.61 386.581 317.61 387.008C317.61 389.621 316.25 392.928 313.53 396.928C308.623 404.128 302.09 407.728 293.93 407.728C291.637 407.728 289.53 407.195 287.61 406.128C285.69 405.061 284.17 403.701 283.05 402.048C280.757 398.688 279.61 395.168 279.61 391.488C279.61 382.208 282.01 374.741 286.81 369.088C291.663 363.381 297.397 360.528 304.01 360.528C306.517 360.528 308.57 361.275 310.17 362.768C311.77 364.208 312.57 366.048 312.57 368.288C312.57 370.528 312.01 372.608 310.89 374.528C309.77 376.448 308.41 377.408 306.81 377.408C305.263 377.408 304.49 376.981 304.49 376.128C304.49 375.168 304.997 374.075 306.01 372.848C307.077 371.621 307.61 370.395 307.61 369.168C307.61 365.381 305.583 363.488 301.53 363.488C297.53 363.488 293.903 366.181 290.65 371.568C287.397 376.955 285.77 382.501 285.77 388.208C285.77 392.155 286.89 395.675 289.13 398.768C291.37 401.808 294.517 403.328 298.57 403.328C303.37 403.328 307.983 400.128 312.41 393.728ZM337.619 389.568C339.752 388.875 341.219 388.288 342.019 387.808C342.872 387.275 343.512 386.875 343.939 386.608L344.899 386.048C345.165 385.888 345.379 385.808 345.539 385.808C345.965 385.808 346.179 386.048 346.179 386.528C346.179 387.008 345.352 387.861 343.699 389.088C342.045 390.261 339.992 391.328 337.539 392.288C337.165 396.768 335.752 400.395 333.299 403.168C330.845 405.941 327.352 407.328 322.819 407.328C319.512 407.328 316.979 406.021 315.219 403.408C313.459 400.741 312.579 397.648 312.579 394.128C312.579 390.555 313.619 387.195 315.699 384.048C317.832 380.901 320.552 379.328 323.859 379.328C325.352 378.261 327.112 377.728 329.139 377.728C331.219 377.728 333.139 378.821 334.899 381.008C336.659 383.195 337.565 386.048 337.619 389.568ZM332.419 393.648L329.539 393.808C327.085 393.808 325.005 393.088 323.299 391.648C321.592 390.155 320.739 388.528 320.739 386.768C320.739 385.008 321.032 383.488 321.619 382.208C319.325 384.021 318.179 387.595 318.179 392.928C318.179 395.488 318.712 397.941 319.779 400.288C320.845 402.581 322.525 403.728 324.819 403.728C327.112 403.728 328.899 402.768 330.179 400.848C331.459 398.875 332.205 396.475 332.419 393.648ZM327.459 380.368C326.605 380.368 325.939 380.768 325.459 381.568C324.979 382.315 324.739 383.141 324.739 384.048C324.739 386.021 325.405 387.621 326.739 388.848C328.125 390.075 329.725 390.688 331.539 390.688H332.499C332.392 388.075 331.939 385.701 331.139 383.568C330.392 381.435 329.165 380.368 327.459 380.368ZM366.759 389.568C368.893 388.875 370.359 388.288 371.159 387.808C372.013 387.275 372.653 386.875 373.079 386.608L374.039 386.048C374.306 385.888 374.519 385.808 374.679 385.808C375.106 385.808 375.319 386.048 375.319 386.528C375.319 387.008 374.493 387.861 372.839 389.088C371.186 390.261 369.133 391.328 366.679 392.288C366.306 396.768 364.893 400.395 362.439 403.168C359.986 405.941 356.493 407.328 351.959 407.328C348.653 407.328 346.119 406.021 344.359 403.408C342.599 400.741 341.719 397.648 341.719 394.128C341.719 390.555 342.759 387.195 344.839 384.048C346.973 380.901 349.693 379.328 352.999 379.328C354.493 378.261 356.253 377.728 358.279 377.728C360.359 377.728 362.279 378.821 364.039 381.008C365.799 383.195 366.706 386.048 366.759 389.568ZM361.559 393.648L358.679 393.808C356.226 393.808 354.146 393.088 352.439 391.648C350.733 390.155 349.879 388.528 349.879 386.768C349.879 385.008 350.173 383.488 350.759 382.208C348.466 384.021 347.319 387.595 347.319 392.928C347.319 395.488 347.853 397.941 348.919 400.288C349.986 402.581 351.666 403.728 353.959 403.728C356.253 403.728 358.039 402.768 359.319 400.848C360.599 398.875 361.346 396.475 361.559 393.648ZM356.599 380.368C355.746 380.368 355.079 380.768 354.599 381.568C354.119 382.315 353.879 383.141 353.879 384.048C353.879 386.021 354.546 387.621 355.879 388.848C357.266 390.075 358.866 390.688 360.679 390.688H361.639C361.533 388.075 361.079 385.701 360.279 383.568C359.533 381.435 358.306 380.368 356.599 380.368ZM396.62 409.728L398.78 409.488C399.207 409.488 399.42 409.701 399.42 410.128C399.42 410.875 398.913 411.435 397.9 411.808C396.887 412.181 395.74 412.368 394.46 412.368C392.06 412.368 390.033 411.408 388.38 409.488C386.78 407.568 384.54 404.021 381.66 398.848C380.967 397.728 380.62 396.875 380.62 396.288C380.62 395.488 381.74 394.555 383.98 393.488C387.607 391.621 389.42 389.275 389.42 386.448C389.42 385.648 389.127 384.981 388.54 384.448C388.007 383.861 387.287 383.568 386.38 383.568C385.1 383.568 383.58 385.088 381.82 388.128C380.06 391.115 378.86 393.941 378.22 396.608C377.633 399.221 377.34 402.048 377.34 405.088C377.34 406.581 376.913 407.328 376.06 407.328C374.833 407.328 373.66 407.168 372.54 406.848C371.42 406.475 370.86 406.021 370.86 405.488C370.86 404.901 371.073 402.368 371.5 397.888C371.927 393.355 372.167 390.101 372.22 388.128C372.433 377.248 373.073 368.928 374.14 363.168C374.3 362.688 375.02 361.861 376.3 360.688C377.633 359.515 378.7 358.928 379.5 358.928C380.3 358.928 380.673 359.941 380.62 361.968C380.62 363.941 380.193 368.208 379.34 374.768C378.487 381.328 377.953 387.328 377.74 392.768C378.7 389.355 380.22 386.128 382.3 383.088C384.433 380.048 386.567 378.528 388.7 378.528C392.327 378.528 394.14 380.288 394.14 383.808C394.14 386.155 393.447 388.288 392.06 390.208C390.673 392.075 388.807 393.595 386.46 394.768C385.98 394.981 385.74 395.221 385.74 395.488C385.74 395.755 385.82 396.021 385.98 396.288C389.34 402.208 392.193 406.368 394.54 408.768C395.18 409.408 395.873 409.728 396.62 409.728ZM411.082 396.288C409.802 396.288 408.762 395.781 407.962 394.768C407.162 393.755 406.762 392.555 406.762 391.168C406.762 389.728 407.162 388.475 407.962 387.408C408.815 386.288 409.828 385.355 411.002 384.608C412.175 383.861 413.348 383.061 414.522 382.208C415.748 381.355 416.762 380.155 417.562 378.608C418.415 377.061 418.842 375.168 418.842 372.928C418.842 370.635 418.202 368.741 416.922 367.248C415.695 365.755 413.962 365.008 411.722 365.008C410.762 365.008 409.855 365.435 409.002 366.288C407.935 367.408 407.082 368.848 406.442 370.608C405.802 371.995 404.922 372.688 403.802 372.688C403.162 372.688 402.655 372.448 402.282 371.968C401.962 371.488 401.802 370.981 401.802 370.448C401.855 368.155 403.242 366.208 405.962 364.608C408.735 362.955 411.508 362.128 414.282 362.128C417.055 362.128 419.562 362.955 421.802 364.608C424.095 366.208 425.242 368.368 425.242 371.088C425.242 373.755 424.762 376.048 423.802 377.968C422.842 379.835 421.668 381.301 420.282 382.368C418.895 383.381 417.482 384.288 416.042 385.088C414.655 385.888 413.482 386.688 412.522 387.488C411.562 388.235 411.082 388.981 411.082 389.728C411.082 390.421 411.482 391.115 412.282 391.808C413.082 392.501 413.482 393.035 413.482 393.408C413.482 393.728 413.188 394.288 412.602 395.088C412.015 395.888 411.508 396.288 411.082 396.288ZM408.922 408.368C408.122 408.368 407.348 408.101 406.602 407.568C405.855 407.088 405.482 406.261 405.482 405.088C405.535 403.915 406.068 403.008 407.082 402.368C408.148 401.675 409.135 401.328 410.042 401.328C410.948 401.328 411.695 401.595 412.282 402.128C412.922 402.608 413.242 403.221 413.242 403.968C413.242 406.901 411.802 408.368 408.922 408.368Z" fill="white"/>
<circle cx="200.04" cy="316.428" r="10" fill="white"/>
<circle cx="233.373" cy="316.428" r="10" fill="white"/>
<circle cx="266.706" cy="316.428" r="10" fill="white"/>
<circle cx="300.04" cy="316.428" r="10" fill="white"/>
<path fill-rule="evenodd" clip-rule="evenodd" d="M334.804 216.869C334.804 216.869 353.771 185.233 336.59 164.623C308.571 131.013 269.872 152.545 269.872 152.545C273.631 148.301 278.332 144.386 287.126 141.904C287.126 141.904 274.345 118.824 243.702 123.212C200.335 129.421 190.5 170.95 190.5 170.95C190.196 164.66 190.46 158.182 192.512 151.107C192.512 151.107 175.922 153.017 166.124 164.523C145.838 188.347 169.115 215.137 169.115 215.137C169.115 215.137 137.385 196.228 155.771 162.454C168.089 139.827 193.768 143.001 193.768 143.001C193.768 143.001 208.829 111.129 243.021 108.273C290.774 104.285 298.623 138.324 298.623 138.324C298.623 138.324 328.313 132.586 344.375 160.401C361.335 189.771 334.804 216.869 334.804 216.869ZM229.365 215.309C265.023 208.866 296.209 211.067 319.773 228.008C314.443 237.577 312.392 250.889 316.749 262.478C310.537 256.394 306.913 248.395 307.152 231.926C290.203 218.932 254.205 214.195 229.365 215.309ZM194.683 229.637C202.388 239.33 206.729 254.387 204.105 269.244C246.587 254.413 281.641 260.765 308.614 276.322C267.854 267.762 228.587 266.488 192.988 283.095C197.2 266.187 198.212 248.48 194.683 229.637Z" fill="white"/>
</g>
<defs>
<clipPath id="clip0_4_120">
<path d="M0.520004 8.53795C0.520004 4.11967 4.10173 0.537964 8.52 0.537964H492.52C496.938 0.537964 500.52 4.11969 500.52 8.53796V492.538C500.52 496.956 496.938 500.538 492.52 500.538H8.51999C4.10171 500.538 0.520004 496.956 0.520004 492.538V8.53795Z" fill="white"/>
</clipPath>
</defs>
</svg>
