<svg width="414" height="306" viewBox="0 0 414 306" fill="none" xmlns="http://www.w3.org/2000/svg">
<path d="M64.0981 261.528L63.6181 267.448C63.6181 274.915 64.0981 281.501 65.0581 287.208C66.0181 292.861 67.1648 295.688 68.4981 295.688C70.3114 295.688 72.3114 293.155 74.4981 288.088C76.6848 283.021 77.7781 277.955 77.7781 272.888C77.7781 267.075 77.1648 263.128 75.9381 261.048C75.4581 260.301 74.7114 259.421 73.6981 258.408C71.8314 256.541 70.8981 254.755 70.8981 253.048C70.8981 252.248 71.1114 251.608 71.5381 251.128C72.0181 250.595 72.5781 250.328 73.2181 250.328C74.8714 250.328 76.2581 250.995 77.3781 252.328C78.4981 253.608 79.2981 255.288 79.7781 257.368C80.6848 261.048 81.1381 264.941 81.1381 269.048C81.1381 278.595 79.3514 286.328 75.7781 292.248C72.2581 298.168 68.7914 301.128 65.3781 301.128C62.9248 301.128 61.0848 298.515 59.8581 293.288C58.6848 288.061 58.0981 281.421 58.0981 273.368C54.8981 286.701 51.5114 295.128 47.9381 298.648C46.1781 300.301 44.2848 301.128 42.2581 301.128C41.1914 301.128 40.1248 300.675 39.0581 299.768C38.0448 298.808 37.2981 297.555 36.8181 296.008C35.7514 292.861 35.2181 286.861 35.2181 278.008C32.9781 277.688 30.9781 277.101 29.2181 276.248C28.3648 275.821 27.9381 275.341 27.9381 274.808C27.9381 274.275 28.4714 274.008 29.5381 274.008L35.2981 275.208C35.7781 265.981 37.5114 258.861 40.4981 253.848C42.0981 251.128 43.8848 249.768 45.8581 249.768C49.4314 249.768 51.2181 252.435 51.2181 257.768C51.2181 262.088 50.3914 266.221 48.7381 270.168C47.0848 274.115 44.6048 276.621 41.2981 277.688C41.2981 281.261 41.5114 284.461 41.9381 287.288C42.7914 292.888 43.8314 295.688 45.0581 295.688C46.0714 295.688 47.4048 294.168 49.0581 291.128C50.7114 288.035 52.3114 283.875 53.8581 278.648C55.4581 273.421 56.4981 268.275 56.9781 263.208C57.0314 262.461 57.7514 261.608 59.1381 260.648C60.5248 259.688 61.4848 259.208 62.0181 259.208C63.4048 259.208 64.0981 259.981 64.0981 261.528ZM41.2981 275.208C43.5914 274.301 45.3514 272.141 46.5781 268.728C47.8581 265.261 48.4981 262.541 48.4981 260.568C48.4981 258.541 48.4181 257.048 48.2581 256.088C47.8848 254.435 47.3781 253.608 46.7381 253.608C45.5648 253.608 44.3914 256.061 43.2181 260.968C42.0981 265.821 41.4581 270.568 41.2981 275.208ZM89.7343 295.608L89.8143 298.088C89.8143 299.581 89.3877 300.328 88.5343 300.328C87.2543 300.328 86.0277 300.168 84.8543 299.848C83.681 299.475 83.0943 298.995 83.0943 298.408C83.0943 297.768 83.2277 295.661 83.4943 292.088C83.8143 288.461 83.9743 285.741 83.9743 283.928V279.288C83.9743 265.635 86.401 256.941 91.2543 253.208C92.3743 252.355 93.521 251.928 94.6943 251.928C95.2277 251.928 95.761 252.515 96.2943 253.688C96.8277 254.861 97.0943 256.381 97.0943 258.248C97.0943 262.835 96.321 267.128 94.7743 271.128C93.2277 275.128 91.6543 278.195 90.0543 280.328C90.001 281.661 89.9743 283.741 89.9743 286.568C90.1877 286.248 91.3077 284.435 93.3343 281.128C95.361 277.821 97.0677 275.395 98.4543 273.848C99.8943 272.301 101.174 271.528 102.294 271.528C103.414 271.528 104.401 271.901 105.254 272.648C106.161 273.395 106.614 274.328 106.614 275.448C106.614 277.795 106.348 281.261 105.814 285.848C105.334 290.381 105.094 293.261 105.094 294.488C105.094 295.661 105.254 296.248 105.574 296.248C106.481 296.195 107.734 295.075 109.334 292.888C110.934 290.648 112.508 287.795 114.054 284.328C115.654 280.861 116.614 279.128 116.934 279.128C117.308 279.128 117.494 279.341 117.494 279.768C117.494 281.261 116.721 283.635 115.174 286.888C110.961 295.848 107.414 300.328 104.534 300.328C102.454 300.328 100.881 299.901 99.8143 299.048C99.441 298.675 99.2543 297.715 99.2543 296.168C99.2543 294.568 99.3877 292.008 99.6543 288.488C99.9743 284.915 100.134 282.248 100.134 280.488C100.134 278.728 99.8143 277.848 99.1743 277.848C98.5877 277.848 96.9877 279.688 94.3743 283.368C91.761 286.995 90.3743 289.315 90.2143 290.328C89.8943 292.195 89.7343 293.955 89.7343 295.608ZM94.9343 260.008C94.9343 257.768 94.641 256.648 94.0543 256.648C93.0943 256.648 92.161 259.608 91.2543 265.528C90.7743 268.675 90.4277 272.328 90.2143 276.488C93.361 269.928 94.9343 264.435 94.9343 260.008ZM135.262 300.328C133.182 300.328 131.609 299.901 130.542 299.048C130.169 298.675 129.982 297.741 129.982 296.248C129.982 294.701 130.035 292.648 130.142 290.088C128.755 293.555 127.369 296.141 125.982 297.848C124.649 299.501 122.915 300.328 120.782 300.328C118.649 300.328 116.782 299.341 115.182 297.368C113.582 295.341 112.782 292.195 112.782 287.928C112.782 283.608 113.982 279.795 116.382 276.488C118.835 273.181 122.035 271.528 125.982 271.528C127.689 271.528 129.609 272.648 131.742 274.888C132.169 274.301 132.915 273.608 133.982 272.808C135.102 271.955 136.035 271.528 136.782 271.528C137.582 271.528 137.982 272.541 137.982 274.568C137.982 275.101 137.822 276.141 137.502 277.688C137.235 279.235 136.915 280.355 136.542 281.048C136.062 282.275 135.822 286.621 135.822 294.088C135.822 295.528 135.982 296.248 136.302 296.248C137.209 296.195 138.462 295.075 140.062 292.888C141.662 290.648 143.235 287.795 144.782 284.328C146.382 280.861 147.342 279.128 147.662 279.128C148.035 279.128 148.222 279.341 148.222 279.768C148.222 281.261 147.449 283.635 145.902 286.888C141.689 295.848 138.142 300.328 135.262 300.328ZM125.502 274.728C124.009 274.728 122.409 275.848 120.702 278.088C119.049 280.275 118.222 282.861 118.222 285.848C118.222 288.835 118.649 291.288 119.502 293.208C120.409 295.128 121.582 296.088 123.022 296.088C124.782 296.088 127.369 291.688 130.782 282.888C130.835 282.461 130.889 281.741 130.942 280.728C131.049 279.661 131.129 278.861 131.182 278.328C130.702 277.475 129.849 276.675 128.622 275.928C127.449 275.128 126.409 274.728 125.502 274.728ZM161.327 286.888C157.114 295.848 153.54 300.328 150.607 300.328C147.727 300.328 146.02 299.981 145.487 299.288C145.007 298.595 144.767 296.301 144.767 292.408C144.767 288.515 145.14 282.888 145.887 275.528C143.22 274.995 141.807 273.901 141.647 272.248C141.647 271.395 142.207 270.968 143.327 270.968C144.447 270.968 145.434 271.181 146.287 271.608C146.767 267.768 147.327 263.875 147.967 259.928C148.127 258.915 148.634 257.955 149.487 257.048C150.34 256.141 151.167 255.688 151.967 255.688C152.66 255.688 153.007 256.781 153.007 258.968C153.007 259.981 152.634 264.648 151.887 272.968C153.327 272.701 154.9 272.168 156.607 271.368C158.367 270.568 159.407 270.168 159.727 270.168C160.687 270.168 161.167 270.461 161.167 271.048C161.22 271.581 160.234 272.328 158.207 273.288C156.18 274.195 153.994 274.888 151.647 275.368C151.007 283.155 150.687 289.048 150.687 293.048C150.687 295.181 151.007 296.248 151.647 296.248C152.607 296.195 153.887 295.075 155.487 292.888C157.087 290.701 158.66 287.875 160.207 284.408C161.807 280.888 162.767 279.128 163.087 279.128C163.46 279.128 163.647 279.341 163.647 279.768C163.647 281.261 162.874 283.635 161.327 286.888ZM193.358 286.888C189.145 295.848 185.571 300.328 182.638 300.328C179.758 300.328 178.051 299.981 177.518 299.288C177.038 298.595 176.798 296.301 176.798 292.408C176.798 288.515 177.171 282.888 177.918 275.528C175.251 274.995 173.838 273.901 173.678 272.248C173.678 271.395 174.238 270.968 175.358 270.968C176.478 270.968 177.465 271.181 178.318 271.608C178.798 267.768 179.358 263.875 179.998 259.928C180.158 258.915 180.665 257.955 181.518 257.048C182.371 256.141 183.198 255.688 183.998 255.688C184.691 255.688 185.038 256.781 185.038 258.968C185.038 259.981 184.665 264.648 183.918 272.968C185.358 272.701 186.931 272.168 188.638 271.368C190.398 270.568 191.438 270.168 191.758 270.168C192.718 270.168 193.198 270.461 193.198 271.048C193.251 271.581 192.265 272.328 190.238 273.288C188.211 274.195 186.025 274.888 183.678 275.368C183.038 283.155 182.718 289.048 182.718 293.048C182.718 295.181 183.038 296.248 183.678 296.248C184.638 296.195 185.918 295.075 187.518 292.888C189.118 290.701 190.691 287.875 192.238 284.408C193.838 280.888 194.798 279.128 195.118 279.128C195.491 279.128 195.678 279.341 195.678 279.768C195.678 281.261 194.905 283.635 193.358 286.888ZM216.572 282.568C218.705 281.875 220.172 281.288 220.972 280.808C221.825 280.275 222.465 279.875 222.892 279.608L223.852 279.048C224.119 278.888 224.332 278.808 224.492 278.808C224.919 278.808 225.132 279.048 225.132 279.528C225.132 280.008 224.305 280.861 222.652 282.088C220.999 283.261 218.945 284.328 216.492 285.288C216.119 289.768 214.705 293.395 212.252 296.168C209.799 298.941 206.305 300.328 201.772 300.328C198.465 300.328 195.932 299.021 194.172 296.408C192.412 293.741 191.532 290.648 191.532 287.128C191.532 283.555 192.572 280.195 194.652 277.048C196.785 273.901 199.505 272.328 202.812 272.328C204.305 271.261 206.065 270.728 208.092 270.728C210.172 270.728 212.092 271.821 213.852 274.008C215.612 276.195 216.519 279.048 216.572 282.568ZM211.372 286.648L208.492 286.808C206.039 286.808 203.959 286.088 202.252 284.648C200.545 283.155 199.692 281.528 199.692 279.768C199.692 278.008 199.985 276.488 200.572 275.208C198.279 277.021 197.132 280.595 197.132 285.928C197.132 288.488 197.665 290.941 198.732 293.288C199.799 295.581 201.479 296.728 203.772 296.728C206.065 296.728 207.852 295.768 209.132 293.848C210.412 291.875 211.159 289.475 211.372 286.648ZM206.412 273.368C205.559 273.368 204.892 273.768 204.412 274.568C203.932 275.315 203.692 276.141 203.692 277.048C203.692 279.021 204.359 280.621 205.692 281.848C207.079 283.075 208.679 283.688 210.492 283.688H211.452C211.345 281.075 210.892 278.701 210.092 276.568C209.345 274.435 208.119 273.368 206.412 273.368ZM269.41 286.728C269.783 286.195 270.317 285.261 271.01 283.928C272.717 280.888 273.73 279.368 274.05 279.368C274.423 279.368 274.61 279.581 274.61 280.008C274.61 282.621 273.25 285.928 270.53 289.928C265.623 297.128 259.09 300.728 250.93 300.728C248.637 300.728 246.53 300.195 244.61 299.128C242.69 298.061 241.17 296.701 240.05 295.048C237.757 291.688 236.61 288.168 236.61 284.488C236.61 275.208 239.01 267.741 243.81 262.088C248.663 256.381 254.397 253.528 261.01 253.528C263.517 253.528 265.57 254.275 267.17 255.768C268.77 257.208 269.57 259.048 269.57 261.288C269.57 263.528 269.01 265.608 267.89 267.528C266.77 269.448 265.41 270.408 263.81 270.408C262.263 270.408 261.49 269.981 261.49 269.128C261.49 268.168 261.997 267.075 263.01 265.848C264.077 264.621 264.61 263.395 264.61 262.168C264.61 258.381 262.583 256.488 258.53 256.488C254.53 256.488 250.903 259.181 247.65 264.568C244.397 269.955 242.77 275.501 242.77 281.208C242.77 285.155 243.89 288.675 246.13 291.768C248.37 294.808 251.517 296.328 255.57 296.328C260.37 296.328 264.983 293.128 269.41 286.728ZM294.619 282.568C296.752 281.875 298.219 281.288 299.019 280.808C299.872 280.275 300.512 279.875 300.939 279.608L301.899 279.048C302.165 278.888 302.379 278.808 302.539 278.808C302.965 278.808 303.179 279.048 303.179 279.528C303.179 280.008 302.352 280.861 300.699 282.088C299.045 283.261 296.992 284.328 294.539 285.288C294.165 289.768 292.752 293.395 290.299 296.168C287.845 298.941 284.352 300.328 279.819 300.328C276.512 300.328 273.979 299.021 272.219 296.408C270.459 293.741 269.579 290.648 269.579 287.128C269.579 283.555 270.619 280.195 272.699 277.048C274.832 273.901 277.552 272.328 280.859 272.328C282.352 271.261 284.112 270.728 286.139 270.728C288.219 270.728 290.139 271.821 291.899 274.008C293.659 276.195 294.565 279.048 294.619 282.568ZM289.419 286.648L286.539 286.808C284.085 286.808 282.005 286.088 280.299 284.648C278.592 283.155 277.739 281.528 277.739 279.768C277.739 278.008 278.032 276.488 278.619 275.208C276.325 277.021 275.179 280.595 275.179 285.928C275.179 288.488 275.712 290.941 276.779 293.288C277.845 295.581 279.525 296.728 281.819 296.728C284.112 296.728 285.899 295.768 287.179 293.848C288.459 291.875 289.205 289.475 289.419 286.648ZM284.459 273.368C283.605 273.368 282.939 273.768 282.459 274.568C281.979 275.315 281.739 276.141 281.739 277.048C281.739 279.021 282.405 280.621 283.739 281.848C285.125 283.075 286.725 283.688 288.539 283.688H289.499C289.392 281.075 288.939 278.701 288.139 276.568C287.392 274.435 286.165 273.368 284.459 273.368ZM323.759 282.568C325.893 281.875 327.359 281.288 328.159 280.808C329.013 280.275 329.653 279.875 330.079 279.608L331.039 279.048C331.306 278.888 331.519 278.808 331.679 278.808C332.106 278.808 332.319 279.048 332.319 279.528C332.319 280.008 331.493 280.861 329.839 282.088C328.186 283.261 326.133 284.328 323.679 285.288C323.306 289.768 321.893 293.395 319.439 296.168C316.986 298.941 313.493 300.328 308.959 300.328C305.653 300.328 303.119 299.021 301.359 296.408C299.599 293.741 298.719 290.648 298.719 287.128C298.719 283.555 299.759 280.195 301.839 277.048C303.973 273.901 306.693 272.328 309.999 272.328C311.493 271.261 313.253 270.728 315.279 270.728C317.359 270.728 319.279 271.821 321.039 274.008C322.799 276.195 323.706 279.048 323.759 282.568ZM318.559 286.648L315.679 286.808C313.226 286.808 311.146 286.088 309.439 284.648C307.733 283.155 306.879 281.528 306.879 279.768C306.879 278.008 307.173 276.488 307.759 275.208C305.466 277.021 304.319 280.595 304.319 285.928C304.319 288.488 304.853 290.941 305.919 293.288C306.986 295.581 308.666 296.728 310.959 296.728C313.253 296.728 315.039 295.768 316.319 293.848C317.599 291.875 318.346 289.475 318.559 286.648ZM313.599 273.368C312.746 273.368 312.079 273.768 311.599 274.568C311.119 275.315 310.879 276.141 310.879 277.048C310.879 279.021 311.546 280.621 312.879 281.848C314.266 283.075 315.866 283.688 317.679 283.688H318.639C318.533 281.075 318.079 278.701 317.279 276.568C316.533 274.435 315.306 273.368 313.599 273.368ZM353.62 302.728L355.78 302.488C356.207 302.488 356.42 302.701 356.42 303.128C356.42 303.875 355.913 304.435 354.9 304.808C353.887 305.181 352.74 305.368 351.46 305.368C349.06 305.368 347.033 304.408 345.38 302.488C343.78 300.568 341.54 297.021 338.66 291.848C337.967 290.728 337.62 289.875 337.62 289.288C337.62 288.488 338.74 287.555 340.98 286.488C344.607 284.621 346.42 282.275 346.42 279.448C346.42 278.648 346.127 277.981 345.54 277.448C345.007 276.861 344.287 276.568 343.38 276.568C342.1 276.568 340.58 278.088 338.82 281.128C337.06 284.115 335.86 286.941 335.22 289.608C334.633 292.221 334.34 295.048 334.34 298.088C334.34 299.581 333.913 300.328 333.06 300.328C331.833 300.328 330.66 300.168 329.54 299.848C328.42 299.475 327.86 299.021 327.86 298.488C327.86 297.901 328.073 295.368 328.5 290.888C328.927 286.355 329.167 283.101 329.22 281.128C329.433 270.248 330.073 261.928 331.14 256.168C331.3 255.688 332.02 254.861 333.3 253.688C334.633 252.515 335.7 251.928 336.5 251.928C337.3 251.928 337.673 252.941 337.62 254.968C337.62 256.941 337.193 261.208 336.34 267.768C335.487 274.328 334.953 280.328 334.74 285.768C335.7 282.355 337.22 279.128 339.3 276.088C341.433 273.048 343.567 271.528 345.7 271.528C349.327 271.528 351.14 273.288 351.14 276.808C351.14 279.155 350.447 281.288 349.06 283.208C347.673 285.075 345.807 286.595 343.46 287.768C342.98 287.981 342.74 288.221 342.74 288.488C342.74 288.755 342.82 289.021 342.98 289.288C346.34 295.208 349.193 299.368 351.54 301.768C352.18 302.408 352.873 302.728 353.62 302.728ZM368.082 289.288C366.802 289.288 365.762 288.781 364.962 287.768C364.162 286.755 363.762 285.555 363.762 284.168C363.762 282.728 364.162 281.475 364.962 280.408C365.815 279.288 366.828 278.355 368.002 277.608C369.175 276.861 370.348 276.061 371.522 275.208C372.748 274.355 373.762 273.155 374.562 271.608C375.415 270.061 375.842 268.168 375.842 265.928C375.842 263.635 375.202 261.741 373.922 260.248C372.695 258.755 370.962 258.008 368.722 258.008C367.762 258.008 366.855 258.435 366.002 259.288C364.935 260.408 364.082 261.848 363.442 263.608C362.802 264.995 361.922 265.688 360.802 265.688C360.162 265.688 359.655 265.448 359.282 264.968C358.962 264.488 358.802 263.981 358.802 263.448C358.855 261.155 360.242 259.208 362.962 257.608C365.735 255.955 368.508 255.128 371.282 255.128C374.055 255.128 376.562 255.955 378.802 257.608C381.095 259.208 382.242 261.368 382.242 264.088C382.242 266.755 381.762 269.048 380.802 270.968C379.842 272.835 378.668 274.301 377.282 275.368C375.895 276.381 374.482 277.288 373.042 278.088C371.655 278.888 370.482 279.688 369.522 280.488C368.562 281.235 368.082 281.981 368.082 282.728C368.082 283.421 368.482 284.115 369.282 284.808C370.082 285.501 370.482 286.035 370.482 286.408C370.482 286.728 370.188 287.288 369.602 288.088C369.015 288.888 368.508 289.288 368.082 289.288ZM365.922 301.368C365.122 301.368 364.348 301.101 363.602 300.568C362.855 300.088 362.482 299.261 362.482 298.088C362.535 296.915 363.068 296.008 364.082 295.368C365.148 294.675 366.135 294.328 367.042 294.328C367.948 294.328 368.695 294.595 369.282 295.128C369.922 295.608 370.242 296.221 370.242 296.968C370.242 299.901 368.802 301.368 365.922 301.368Z" fill="white"/>
<circle cx="157.04" cy="209.428" r="10" fill="white"/>
<circle cx="190.373" cy="209.428" r="10" fill="white"/>
<circle cx="223.706" cy="209.428" r="10" fill="white"/>
<circle cx="257.04" cy="209.428" r="10" fill="white"/>
<path fill-rule="evenodd" clip-rule="evenodd" d="M291.804 109.869C291.804 109.869 310.771 78.2329 293.59 57.6233C265.571 24.0127 226.872 45.5448 226.872 45.5448C230.631 41.3005 235.332 37.3861 244.126 34.9039C244.126 34.9039 231.345 11.8241 200.702 16.2124C157.335 22.4205 147.5 63.9503 147.5 63.9503C147.196 57.6605 147.46 51.1822 149.512 44.1073C149.512 44.1073 132.922 46.0174 123.124 57.5231C102.838 81.3469 126.115 108.137 126.115 108.137C126.115 108.137 94.3851 89.2276 112.771 55.4537C125.089 32.8272 150.768 36.001 150.768 36.001C150.768 36.001 165.829 4.12858 200.021 1.27272C247.774 -2.71473 255.623 31.3239 255.623 31.3239C255.623 31.3239 285.313 25.5863 301.375 53.4009C318.335 82.7712 291.804 109.869 291.804 109.869ZM186.365 108.309C222.023 101.866 253.209 104.067 276.773 121.008C271.443 130.577 269.392 143.889 273.749 155.478C267.537 149.394 263.913 141.395 264.152 124.926C247.203 111.932 211.205 107.195 186.365 108.309ZM151.683 122.637C159.388 132.33 163.729 147.387 161.105 162.244C203.587 147.413 238.641 153.765 265.614 169.322C224.854 160.762 185.587 159.488 149.988 176.095C154.2 159.187 155.212 141.48 151.683 122.637Z" fill="white"/>
</svg>
