<svg width="500" height="500" viewBox="0 0 500 500" fill="none" xmlns="http://www.w3.org/2000/svg">
<g clip-path="url(#clip0_4_4)">
<path d="M-0.480347 8.34776C-0.480347 3.92949 3.10138 0.347778 7.51965 0.347778H491.52C495.938 0.347778 499.52 3.9295 499.52 8.34778V492.348C499.52 496.766 495.938 500.348 491.52 500.348H7.51964C3.10136 500.348 -0.480347 496.766 -0.480347 492.348V8.34776Z" fill="white"/>
<circle cx="175" cy="398.86" r="15" fill="black"/>
<circle cx="225" cy="398.86" r="15" fill="black"/>
<circle cx="275" cy="398.86" r="15" fill="black"/>
<circle cx="325" cy="398.86" r="15" fill="black"/>
<path fill-rule="evenodd" clip-rule="evenodd" d="M377.147 249.522C377.147 249.522 405.597 202.067 379.826 171.153C337.797 120.737 279.749 153.035 279.749 153.035C285.387 146.669 292.438 140.797 305.63 137.074C305.63 137.074 286.459 102.454 240.493 109.037C175.444 118.349 160.69 180.643 160.69 180.643C160.234 171.209 160.631 161.491 163.709 150.879C163.709 150.879 138.823 153.744 124.127 171.003C93.6983 206.738 128.613 246.924 128.613 246.924C128.613 246.924 81.0181 218.559 108.597 167.899C127.074 133.959 165.593 138.72 165.593 138.72C165.593 138.72 188.183 90.9109 239.471 86.6272C311.101 80.646 322.875 131.704 322.875 131.704C322.875 131.704 367.41 123.098 391.504 164.819C416.943 208.875 377.147 249.522 377.147 249.522ZM218.988 247.182C272.475 237.517 319.254 240.819 354.6 266.23C346.605 280.583 343.529 300.552 350.063 317.936C340.746 308.809 335.31 296.81 335.669 272.107C310.245 252.616 256.248 245.511 218.988 247.182ZM166.965 268.674C178.522 283.213 185.034 305.799 181.098 328.084C244.82 305.837 297.403 315.366 337.861 338.701C276.721 325.861 217.821 323.95 164.423 348.86C170.741 323.499 172.258 296.938 166.965 268.674Z" fill="black"/>
</g>
<defs>
<clipPath id="clip0_4_4">
<path d="M0 7.99999C0 3.58171 3.58172 0 8 0H492C496.418 0 500 3.58172 500 8V492C500 496.418 496.418 500 492 500H7.99999C3.58171 500 0 496.418 0 492V7.99999Z" fill="white"/>
</clipPath>
</defs>
</svg>
